<?xml version="1.0" encoding="UTF-8" standalone="no"?>
<svg width="30px" height="80px" viewBox="0 0 30 80" version="1.1" xmlns="http://www.w3.org/2000/svg" xmlns:xlink="http://www.w3.org/1999/xlink">
    <!-- Generator: Sketch 39.1 (31720) - http://www.bohemiancoding.com/sketch -->
    <title>vacant</title>
    <desc>Created with Sketch.</desc>
    <defs></defs>
    <g id="Page-1" stroke="none" stroke-width="1" fill="none" fill-rule="evenodd">
        <g id="vacant" fill="#FFFFFF">
            <g id="Group">
                <path d="M15,37 C10.42,37 8.099,38.479 8.099,41.397 C8.099,46.982 10.405,56.959 15,56.959 C19.596,56.959 21.902,46.982 21.902,41.397 C21.902,38.479 19.58,37 15,37 L15,37 Z M15,54.959 C12.522,54.959 10.099,47.193 10.099,41.397 C10.099,40.742 10.099,39 15,39 C19.902,39 19.902,40.742 19.902,41.397 C19.902,47.193 17.479,54.959 15,54.959 L15,54.959 Z" id="Shape"></path>
                <path d="M26.001,1 L18.732,1 C17.648,0.367 16.412,0 15.001,0 C13.59,0 12.353,0.367 11.27,1 L4,1 C1.794,1 0,2.794 0,5 L0,7 L0,9 L0,20.919 C0,23.668 1.654,26.159 2.861,27.979 C3.332,28.688 3.977,29.661 4,29.972 L4,33 C4,33.016 4.008,33.03 4.009,33.046 C1.514,35.196 0.104,38.239 0.104,41.926 C0.104,47.087 1.286,53.615 4.128,58.491 C4.259,60.19 5.157,62.624 6.114,65.2 C7.102,67.858 8.222,70.872 8.222,72.579 C8.222,76.316 11.263,79.356 15,79.356 C18.737,79.356 21.777,76.316 21.777,72.579 C21.777,70.872 22.897,67.858 23.885,65.2 C24.842,62.625 25.739,60.192 25.871,58.493 C28.713,53.617 29.896,47.088 29.896,41.927 C29.896,38.239 28.486,35.197 25.99,33.046 C25.992,33.029 26,33.016 26,33 L26,29.977 C26.022,29.661 26.668,28.688 27.139,27.979 C28.347,26.159 30,23.668 30,20.919 L30,9 L30.001,9 L30.001,5 C30.001,2.794 28.207,1 26.001,1 L26.001,1 Z M26.001,3 C27.104,3 28.001,3.897 28.001,5 L28.001,7 L23.432,7 C22.798,5.512 22.015,4.134 21.056,3 L26.001,3 L26.001,3 Z M18,29.733 C17.044,29.607 16.046,29.535 15,29.535 C13.954,29.535 12.956,29.607 12,29.734 L12,27.717 C12.932,27.868 13.928,27.954 15.001,27.954 C16.073,27.954 17.069,27.868 18,27.717 L18,29.733 L18,29.733 Z M21.209,7 C21.352,7.294 21.49,7.594 21.62,7.901 C21.738,8.18 21.852,8.464 21.96,8.752 C21.991,8.834 22.019,8.917 22.049,8.999 C23.365,12.64 23.9,16.877 23.9,19.558 C23.9,25.122 18.325,25.953 15.002,25.953 C11.678,25.953 6.103,25.122 6.103,19.558 C6.103,16.877 6.638,12.64 7.954,8.999 C8.205,8.305 8.484,7.634 8.794,6.999 C9.614,5.315 10.647,3.892 11.924,2.999 C12.825,2.369 13.846,1.999 15.002,1.999 C16.158,1.999 17.179,2.369 18.08,2.999 C19.356,3.893 20.389,5.316 21.209,7 L21.209,7 Z M2,5 C2,3.897 2.897,3 4,3 L8.945,3 C7.986,4.134 7.203,5.512 6.569,7 L6.401,7 L2,7 L2,5 L2,5 Z M4.527,26.873 C3.401,25.176 2,23.065 2,20.919 L2,9 L5.822,9 C4.522,12.965 4.102,17.242 4.102,19.559 C4.102,23.359 6.241,26.044 10,27.245 L10,30.105 C8.52,30.462 7.183,30.985 6,31.656 L6,29.972 C6,29.091 5.382,28.16 4.527,26.873 L4.527,26.873 Z M22.011,64.502 C20.913,67.457 19.778,70.512 19.778,72.578 C19.778,75.212 17.634,77.355 15.001,77.355 C12.367,77.355 10.223,75.211 10.223,72.578 C10.223,70.512 9.088,67.457 7.99,64.502 C7.732,63.806 7.473,63.107 7.231,62.426 C9.294,64.312 11.859,65.481 15.002,65.481 C18.144,65.481 20.708,64.312 22.771,62.428 C22.528,63.108 22.269,63.807 22.011,64.502 L22.011,64.502 Z M27.896,41.926 C27.896,45.578 27.159,51.107 25.087,55.668 C22.734,60.853 19.341,63.481 15,63.481 C10.659,63.481 7.265,60.852 4.912,55.668 C2.841,51.106 2.103,45.578 2.103,41.926 C2.103,34.264 8.765,31.534 14.999,31.534 C21.234,31.534 27.896,34.264 27.896,41.926 L27.896,41.926 Z M28,20.919 C28,23.065 26.599,25.176 25.473,26.873 C24.617,28.16 24,29.091 24,29.971 L24,31.655 C22.817,30.984 21.48,30.461 20,30.104 L20,27.245 C23.76,26.045 25.899,23.36 25.899,19.559 C25.899,17.243 25.479,12.966 24.179,9 L28,9 L28,20.919 L28,20.919 Z" id="Shape"></path>
            </g>
        </g>
    </g>
</svg>